<?xml version="1.0" encoding="UTF-8"?> <svg xmlns="http://www.w3.org/2000/svg" viewBox="0 0 555.02 85"> <defs> <style>.d{fill:#ed1b1b;}.e{fill:#fff;}</style> </defs> <g id="a"></g> <g id="b"> <g id="c"> <g> <g> <path class="e" d="M112.12,21.78h33.73v8.81h-23.99v4.84h21.54v8.81h-21.54v5.17h24.85v9.01h-34.6V21.78Z"></path> <path class="e" d="M152.54,21.78h21.67c4.46,0,8.13,1.36,11,4.08,2.87,2.72,4.31,6.22,4.31,10.5,0,5.39-2.21,9.41-6.63,12.06l5.57,10.01h-10.6l-4.17-7.82h-11.4v7.82h-9.74V21.78Zm9.74,8.88v11.07h11.53c1.77,0,3.19-.46,4.27-1.39,1.08-.93,1.62-2.25,1.62-3.98s-.54-3.1-1.62-4.14c-1.08-1.04-2.51-1.56-4.27-1.56h-11.53Z"></path> <path class="e" d="M209.14,21.78h14.18l15.57,36.65h-10.34l-2.32-5.37h-20.28l-2.25,5.37h-10.47l15.91-36.65Zm6.23,8.68l-5.83,14.12h12.92l-5.57-14.12h-1.52Z"></path> <path class="e" d="M244.66,21.78h3.71V54.99h28.5v3.45h-32.21V21.78Z"></path> <path class="e" d="M315.15,26.22c3.82,3.54,5.73,8.17,5.73,13.92s-1.91,10.38-5.73,13.92c-3.82,3.54-8.69,5.3-14.61,5.3s-10.79-1.77-14.61-5.3c-3.82-3.53-5.73-8.17-5.73-13.92s1.91-10.38,5.73-13.92c3.82-3.53,8.69-5.3,14.61-5.3s10.79,1.77,14.61,5.3Zm-31.25,13.92c.04,4.9,1.62,8.76,4.74,11.56,3.11,2.81,7.08,4.21,11.9,4.21s8.79-1.4,11.93-4.21c3.14-2.81,4.71-6.66,4.71-11.56s-1.57-8.76-4.71-11.56c-3.14-2.81-7.11-4.21-11.93-4.21s-8.78,1.4-11.9,4.21c-3.11,2.81-4.7,6.66-4.74,11.56Z"></path> <path class="e" d="M350.97,38.48h13.92v19.95h-2.58l-.79-4.51c-3.84,3.62-8.88,5.43-15.11,5.43s-10.88-1.74-14.61-5.24c-3.73-3.49-5.6-8.17-5.6-14.05s1.9-10.48,5.7-13.95c3.8-3.47,8.64-5.2,14.51-5.2,7.56,0,13.34,2.63,17.36,7.89l-2.98,1.79c-3.31-4.15-8.18-6.23-14.58-6.23-4.9,0-8.84,1.44-11.8,4.31-2.96,2.87-4.44,6.67-4.44,11.4s1.54,8.33,4.61,11.33c3.07,3,6.95,4.51,11.63,4.51,6.58,0,11.64-2.1,15.18-6.3v-7.69l-10.41-.4v-3.05Z"></path> <path class="e" d="M372.7,21.78h3.71V58.43h-3.71V21.78Z"></path> <path class="e" d="M417.11,25.16l-1.79,2.78c-4.51-2.47-9.52-3.71-15.04-3.71-8.48,0-12.72,2.28-12.72,6.83,0,1.86,.65,3.18,1.96,3.98,1.3,.8,3.26,1.35,5.87,1.66l12,1.46c3.67,.44,6.49,1.51,8.48,3.21,1.99,1.7,2.98,3.99,2.98,6.86,0,3.76-1.57,6.55-4.71,8.38-3.14,1.83-7.55,2.75-13.25,2.75-6.94,0-12.88-1.61-17.83-4.84l1.92-3.05c2.56,1.68,5.12,2.86,7.69,3.55,2.56,.69,5.65,1.03,9.28,1.03,4.2,0,7.46-.65,9.78-1.96,2.32-1.3,3.48-3.21,3.48-5.73,0-3.93-2.89-6.21-8.68-6.83l-11.53-1.26c-7.38-.8-11.07-3.84-11.07-9.15,0-3.36,1.53-5.9,4.61-7.62,3.07-1.72,6.99-2.58,11.76-2.58,3.49,0,6.53,.3,9.11,.9,2.58,.6,5.16,1.71,7.72,3.35Z"></path> <path class="e" d="M422.81,21.78h37.51v3.45h-16.9V58.43h-3.71V25.23h-16.9v-3.45Z"></path> <path class="e" d="M466.28,21.78h3.71V58.43h-3.71V21.78Z"></path> <path class="e" d="M514.13,28.94l-3.05,1.86c-3.27-4.24-8.11-6.36-14.51-6.36-4.9,0-8.83,1.42-11.76,4.27-2.94,2.85-4.41,6.64-4.41,11.37s1.5,8.38,4.51,11.37c3,2.98,6.89,4.47,11.66,4.47,6.1,0,10.96-2.19,14.58-6.56l3.12,1.92c-4.24,5.39-10.07,8.09-17.5,8.09-5.92,0-10.76-1.74-14.51-5.24-3.76-3.49-5.63-8.17-5.63-14.05s1.89-10.48,5.67-13.95c3.78-3.47,8.61-5.2,14.48-5.2,7.56,0,13.34,2.67,17.36,8.02Z"></path> <path class="e" d="M553.3,25.16l-1.79,2.78c-4.51-2.47-9.52-3.71-15.04-3.71-8.48,0-12.72,2.28-12.72,6.83,0,1.86,.65,3.18,1.96,3.98,1.3,.8,3.26,1.35,5.87,1.66l12,1.46c3.67,.44,6.5,1.51,8.48,3.21,1.99,1.7,2.98,3.99,2.98,6.86,0,3.76-1.57,6.55-4.71,8.38-3.14,1.83-7.56,2.75-13.26,2.75-6.94,0-12.88-1.61-17.83-4.84l1.92-3.05c2.56,1.68,5.12,2.86,7.69,3.55,2.56,.69,5.66,1.03,9.28,1.03,4.2,0,7.46-.65,9.78-1.96,2.32-1.3,3.48-3.21,3.48-5.73,0-3.93-2.89-6.21-8.68-6.83l-11.53-1.26c-7.38-.8-11.07-3.84-11.07-9.15,0-3.36,1.53-5.9,4.61-7.62,3.07-1.72,6.99-2.58,11.76-2.58,3.49,0,6.53,.3,9.11,.9,2.58,.6,5.16,1.71,7.72,3.35Z"></path> </g> <path class="d" d="M21.43,69.41v-12.39h61.02c.83-2.28,1.46-4.66,1.89-7.1H35v-12.11h49.74c-.25-2.28-.68-4.5-1.28-6.65H28v-12.11h49.94C70.33,7.57,57.3,0,42.5,0,19.03,0,0,19.03,0,42.5s19.03,42.5,42.5,42.5c13.26,0,25.1-6.07,32.89-15.59H21.43Z"></path> <g> <path class="e" d="M151.2,73.2h-3.45v7.28h-1.92v-7.28h-3.43v-1.36h8.8v1.36Z"></path> <path class="e" d="M162.32,74.92c0,1.9-1.7,3.07-4.43,3.07h-2.35v2.49h-1.93v-8.64h4.28c2.73,0,4.43,1.16,4.43,3.07Zm-1.95,0c0-1.09-.88-1.72-2.57-1.72h-2.26v3.43h2.26c1.69,0,2.57-.63,2.57-1.72Z"></path> <path class="e" d="M171.27,78.49h-5.2l-1.03,2h-1.99l4.68-8.64h1.9l4.7,8.64h-2.02l-1.04-2Zm-.64-1.26l-1.96-3.78-1.95,3.78h3.91Z"></path> <path class="e" d="M185.91,71.85v8.64h-1.93v-3.7h-5.38v3.7h-1.93v-8.64h1.93v3.57h5.38v-3.57h1.93Z"></path> <path class="e" d="M188.79,76.17c0-2.58,2.38-4.44,5.57-4.44,1.69,0,3.15,.51,4.12,1.44l-1.25,.98c-.76-.68-1.7-1.01-2.78-1.01-2.16,0-3.72,1.26-3.72,3.04s1.56,3.04,3.72,3.04c1.08,0,2.02-.33,2.78-1.02l1.25,.99c-.97,.94-2.42,1.44-4.13,1.44-3.18,0-5.56-1.86-5.56-4.44Z"></path> <path class="e" d="M210.24,71.85v8.64h-1.9v-7.28h-5.39v7.28h-1.9v-8.64h9.2Z"></path> <path class="e" d="M213.13,76.17c0-2.56,2.38-4.44,5.6-4.44s5.6,1.88,5.6,4.44-2.38,4.44-5.6,4.44-5.6-1.89-5.6-4.44Zm9.26,0c0-1.77-1.56-3.04-3.66-3.04s-3.66,1.27-3.66,3.04,1.56,3.04,3.66,3.04,3.66-1.27,3.66-3.04Z"></path> <path class="e" d="M235.93,74.92c0,1.9-1.69,3.07-4.43,3.07h-2.35v2.49h-1.93v-8.64h4.28c2.73,0,4.43,1.16,4.43,3.07Zm-1.95,0c0-1.09-.88-1.72-2.57-1.72h-2.26v3.43h2.26c1.69,0,2.57-.63,2.57-1.72Z"></path> <path class="e" d="M245.76,73.2h-3.45v7.28h-1.92v-7.28h-3.43v-1.36h8.8v1.36Z"></path> <path class="e" d="M257.41,71.85v8.64h-1.93v-3.7h-5.38v3.7h-1.93v-8.64h1.93v3.57h5.38v-3.57h1.93Z"></path> <path class="e" d="M260.28,76.17c0-2.56,2.38-4.44,5.6-4.44s5.6,1.88,5.6,4.44-2.38,4.44-5.6,4.44-5.6-1.89-5.6-4.44Zm9.26,0c0-1.77-1.56-3.04-3.66-3.04s-3.66,1.27-3.66,3.04,1.56,3.04,3.66,3.04,3.66-1.27,3.66-3.04Z"></path> <path class="e" d="M288.11,71.85v8.64h-1.9v-7.28h-4.1l-.09,2.16c-.13,3.41-.74,5.25-2.99,5.25-.33,0-.65-.05-1.05-.12l.13-1.39c.15,.04,.28,.05,.45,.05,1.26,0,1.65-1.28,1.75-3.72l.15-3.58h7.65Z"></path> <path class="e" d="M290.99,76.17c0-2.56,2.38-4.44,5.6-4.44s5.6,1.88,5.6,4.44-2.38,4.44-5.6,4.44-5.6-1.89-5.6-4.44Zm9.26,0c0-1.77-1.56-3.04-3.66-3.04s-3.66,1.27-3.66,3.04,1.56,3.04,3.66,3.04,3.66-1.27,3.66-3.04Z"></path> <path class="e" d="M312.15,73.2h-5.16v7.28h-1.89v-8.64h7.06v1.36Z"></path> <path class="e" d="M314.54,71.85h1.9v6.13l5.59-6.13h1.8v8.64h-1.9v-6.12l-5.59,6.12h-1.8v-8.64Z"></path> <path class="e" d="M326.72,76.17c0-2.58,2.38-4.44,5.57-4.44,1.7,0,3.15,.51,4.12,1.44l-1.25,.98c-.76-.68-1.69-1.01-2.78-1.01-2.16,0-3.72,1.26-3.72,3.04s1.56,3.04,3.72,3.04c1.08,0,2.02-.33,2.78-1.02l1.25,.99c-.97,.94-2.42,1.44-4.13,1.44-3.18,0-5.56-1.86-5.56-4.44Z"></path> <path class="e" d="M346.38,73.2h-3.45v7.28h-1.92v-7.28h-3.43v-1.36h8.8v1.36Z"></path> <path class="e" d="M348.81,71.85h1.9v6.13l5.59-6.13h1.8v8.64h-1.9v-6.12l-5.59,6.12h-1.8v-8.64Z"></path> <path class="e" d="M369.57,71.85v8.64h-1.92v-3.26c-1,.31-1.93,.46-2.79,.46-2.66,0-4.15-1.1-4.15-3.09v-2.75h1.92v2.58c0,1.22,.88,1.88,2.47,1.88,.86,0,1.74-.15,2.56-.46v-4h1.92Z"></path> <path class="e" d="M381.03,79.14v1.35h-7.8v-8.64h7.59v1.34h-5.66v2.25h5.02v1.32h-5.02v2.38h5.87Z"></path> <path class="e" d="M383.12,76.17c0-2.58,2.38-4.44,5.57-4.44,1.7,0,3.15,.51,4.12,1.44l-1.25,.98c-.76-.68-1.69-1.01-2.78-1.01-2.16,0-3.72,1.26-3.72,3.04s1.56,3.04,3.72,3.04c1.08,0,2.02-.33,2.78-1.02l1.25,.99c-.97,.94-2.42,1.44-4.13,1.44-3.18,0-5.56-1.86-5.56-4.44Z"></path> <path class="e" d="M399.19,76.84h-1.93v3.64h-1.9v-8.64h1.9v3.62h1.99l2.99-3.62h2.05l-3.55,4.18,3.69,4.46h-2.18l-3.05-3.64Z"></path> <path class="e" d="M413.2,78.49h-5.2l-1.03,2h-1.99l4.68-8.64h1.9l4.7,8.64h-2.02l-1.04-2Zm-.64-1.26l-1.96-3.78-1.95,3.78h3.91Z"></path> <path class="e" d="M426.03,71.85v8.64h-1.9v-2.41h-2.78l-1.93,2.41h-2.04l2.23-2.67c-1.44-.44-2.26-1.42-2.26-2.8,0-2,1.71-3.17,4.35-3.17h4.33Zm-6.72,3.15c0,1.14,.82,1.78,2.38,1.78h2.44v-3.57h-2.36c-1.58,0-2.45,.6-2.45,1.79Z"></path> <path class="e" d="M438.39,76.84h-1.93v3.64h-1.9v-8.64h1.9v3.62h1.99l2.99-3.62h2.05l-3.55,4.18,3.69,4.46h-2.18l-3.05-3.64Z"></path> <path class="e" d="M444.87,76.17c0-2.56,2.38-4.44,5.6-4.44s5.6,1.88,5.6,4.44-2.38,4.44-5.6,4.44-5.6-1.89-5.6-4.44Zm9.26,0c0-1.77-1.56-3.04-3.66-3.04s-3.66,1.27-3.66,3.04,1.56,3.04,3.66,3.04,3.66-1.27,3.66-3.04Z"></path> <path class="e" d="M468.52,80.49l-.02-5.73-3.42,4.74h-.86l-3.42-4.67v5.65h-1.83v-8.64h1.59l4.12,5.71,4.07-5.71h1.58l.03,8.64h-1.84Z"></path> <path class="e" d="M483.23,71.85v8.64h-1.9v-7.28h-5.39v7.28h-1.9v-8.64h9.2Z"></path> <path class="e" d="M493.8,78.49h-5.2l-1.03,2h-1.99l4.68-8.64h1.9l4.7,8.64h-2.02l-1.04-2Zm-.64-1.26l-1.96-3.78-1.95,3.78h3.91Z"></path> <path class="e" d="M508.45,71.85v8.64h-1.93v-3.7h-5.38v3.7h-1.93v-8.64h1.93v3.57h5.38v-3.57h1.93Z"></path> <path class="e" d="M512.12,71.85h1.9v6.13l5.59-6.13h1.8v8.64h-1.9v-6.12l-5.59,6.12h-1.8v-8.64Z"></path> <path class="e" d="M533.02,71.85v8.64h-1.9v-2.41h-2.78l-1.93,2.41h-2.04l2.23-2.67c-1.44-.44-2.26-1.42-2.26-2.8,0-2,1.71-3.17,4.36-3.17h4.32Zm-6.72,3.15c0,1.14,.82,1.78,2.38,1.78h2.44v-3.57h-2.36c-1.58,0-2.45,.6-2.45,1.79Z"></path> </g> </g> </g> </g> </svg> 