<svg width="227" height="35" viewBox="0 0 227 35" fill="none" xmlns="http://www.w3.org/2000/svg">
<path d="M45.8564 8.96826H59.6518V12.5959H49.84V14.5889H58.6498V18.2165H49.84V20.3453H60.0035V24.0553H45.8523V8.96826H45.8564Z" fill="black"/>
<path d="M62.388 8.96826H71.2509C73.075 8.96826 74.576 9.52826 75.7498 10.6483C76.9236 11.7683 77.5126 13.2094 77.5126 14.9718C77.5126 17.1912 76.6087 18.8465 74.801 19.9377L77.0791 24.0594H72.7437L71.0382 20.8394H66.3757V24.0594H62.3921V8.96826H62.388ZM66.3716 12.6247V17.183H71.0873C71.8112 17.183 72.392 16.9936 72.8337 16.6106C73.2754 16.2277 73.4963 15.6841 73.4963 14.9718C73.4963 14.2594 73.2754 13.6953 72.8337 13.2671C72.392 12.8389 71.8071 12.6247 71.0873 12.6247H66.3716Z" fill="black"/>
<path d="M85.5371 8.96826H91.3366L97.7046 24.0594H93.4756L92.5268 21.8483H84.2324L83.3121 24.0594H79.03L85.5371 8.96826ZM88.0851 12.5424L85.7006 18.3565H90.9849L88.7068 12.5424H88.0851Z" fill="black"/>
<path d="M100.065 8.96826H101.582V22.643H113.238V24.0636H100.065V8.96826Z" fill="black"/>
<path d="M128.895 10.7965C130.457 12.2541 131.238 14.1606 131.238 16.5283C131.238 18.8959 130.457 20.8024 128.895 22.26C127.332 23.7177 125.34 24.4424 122.919 24.4424C120.498 24.4424 118.506 23.7135 116.944 22.26C115.381 20.8065 114.6 18.8959 114.6 16.5283C114.6 14.1606 115.381 12.2541 116.944 10.7965C118.506 9.34296 120.498 8.61414 122.919 8.61414C125.34 8.61414 127.332 9.34296 128.895 10.7965ZM116.113 16.5283C116.13 18.5459 116.776 20.1353 118.052 21.2883C119.324 22.4453 120.948 23.0218 122.919 23.0218C124.89 23.0218 126.514 22.4453 127.798 21.2883C129.083 20.1312 129.725 18.5459 129.725 16.5283C129.725 14.5106 129.083 12.9212 127.798 11.7683C126.514 10.6112 124.89 10.0347 122.919 10.0347C120.948 10.0347 119.328 10.6112 118.052 11.7683C116.78 12.9253 116.13 14.5106 116.113 16.5283Z" fill="black"/>
<path d="M143.545 15.8447H149.238V24.0594H148.183L147.86 22.2023C146.289 23.6929 144.228 24.4382 141.68 24.4382C139.132 24.4382 137.23 23.7218 135.704 22.2806C134.179 20.8435 133.414 18.9165 133.414 16.4953C133.414 14.0741 134.191 12.18 135.745 10.7512C137.299 9.32234 139.279 8.60999 141.68 8.60999C144.772 8.60999 147.136 9.69293 148.78 11.8588L147.561 12.5959C146.207 10.887 144.215 10.0306 141.598 10.0306C139.594 10.0306 137.982 10.6235 136.772 11.8053C135.561 12.987 134.956 14.5518 134.956 16.4994C134.956 18.447 135.586 19.9294 136.841 21.1647C138.097 22.4 139.684 23.0218 141.598 23.0218C144.289 23.0218 146.359 22.157 147.806 20.4276V17.2612L143.549 17.0965V15.8406L143.545 15.8447Z" fill="black"/>
<path d="M152.432 8.96826H153.95V24.0594H152.432V8.96826Z" fill="black"/>
<path d="M170.596 10.36L169.864 11.5047C168.019 10.4877 165.97 9.97708 163.712 9.97708C160.244 9.97708 158.51 10.9159 158.51 12.7894C158.51 13.5553 158.776 14.0988 159.311 14.4283C159.843 14.7577 160.645 14.9841 161.712 15.1118L166.62 15.713C168.121 15.8941 169.275 16.3347 170.088 17.0347C170.902 17.7347 171.307 18.6777 171.307 19.8594C171.307 21.4077 170.665 22.5565 169.381 23.31C168.097 24.0635 166.293 24.4424 163.962 24.4424C161.123 24.4424 158.694 23.7794 156.669 22.4494L157.455 21.1935C158.502 21.8853 159.549 22.3712 160.6 22.6553C161.647 22.9394 162.911 23.0794 164.395 23.0794C166.113 23.0794 167.446 22.8118 168.395 22.2724C169.344 21.7371 169.819 20.9506 169.819 19.913C169.819 18.2947 168.637 17.3559 166.268 17.1006L161.553 16.5818C158.534 16.2524 157.025 15.0006 157.025 12.8141C157.025 11.4306 157.651 10.3847 158.911 9.67649C160.166 8.96825 161.769 8.61414 163.72 8.61414C165.148 8.61414 166.391 8.73766 167.446 8.98472C168.502 9.23178 169.557 9.68884 170.604 10.3641L170.596 10.36Z" fill="black"/>
<path d="M172.927 8.96826H188.268V10.3888H181.356V24.0594H179.839V10.3888H172.927V8.96826Z" fill="black"/>
<path d="M190.706 8.96826H192.223V24.0594H190.706V8.96826Z" fill="black"/>
<path d="M210.276 11.9164L209.029 12.6823C207.691 10.9364 205.712 10.0635 203.094 10.0635C201.09 10.0635 199.483 10.6482 198.285 11.8217C197.082 12.9952 196.481 14.5558 196.481 16.5035C196.481 18.4511 197.094 19.954 198.325 21.1852C199.552 22.4123 201.143 23.0258 203.094 23.0258C205.589 23.0258 207.577 22.124 209.057 20.3246L210.333 21.1152C208.599 23.3346 206.215 24.4464 203.176 24.4464C200.755 24.4464 198.775 23.7299 197.242 22.2888C195.704 20.8517 194.939 18.9246 194.939 16.5035C194.939 14.0823 195.712 12.1882 197.258 10.7593C198.804 9.33052 200.779 8.61816 203.18 8.61816C206.272 8.61816 208.636 9.71758 210.28 11.9205L210.276 11.9164Z" fill="black"/>
<path d="M226.297 10.36L225.564 11.5047C223.72 10.4877 221.671 9.97708 219.413 9.97708C215.945 9.97708 214.211 10.9159 214.211 12.7894C214.211 13.5553 214.477 14.0988 215.012 14.4283C215.544 14.7577 216.346 14.9841 217.413 15.1118L222.321 15.713C223.822 15.8941 224.98 16.3347 225.789 17.0347C226.603 17.7347 227.008 18.6777 227.008 19.8594C227.008 21.4077 226.366 22.5565 225.082 23.31C223.798 24.0635 221.99 24.4424 219.659 24.4424C216.82 24.4424 214.391 23.7794 212.366 22.4494L213.151 21.1935C214.198 21.8853 215.245 22.3712 216.297 22.6553C217.344 22.9394 218.612 23.0794 220.092 23.0794C221.81 23.0794 223.143 22.8118 224.092 22.2724C225.041 21.7371 225.515 20.9506 225.515 19.913C225.515 18.2947 224.333 17.3559 221.965 17.1006L217.25 16.5818C214.231 16.2524 212.722 15.0006 212.722 12.8141C212.722 11.4306 213.348 10.3847 214.607 9.67649C215.863 8.96825 217.466 8.61414 219.417 8.61414C220.845 8.61414 222.088 8.73766 223.143 8.98472C224.198 9.23178 225.254 9.68884 226.301 10.3641L226.297 10.36Z" fill="black"/>
<path d="M8.76475 28.5806V23.4788H33.7216C34.061 22.54 34.3187 21.56 34.4946 20.5553H14.3148V15.5688H34.6582C34.5559 14.63 34.3801 13.7159 34.1347 12.8306H11.4518V7.84412H31.877C28.7646 3.11706 23.4354 0 17.3823 0C7.78316 0 0 7.83588 0 17.5C0 27.1641 7.78316 35 17.3823 35C22.8055 35 27.648 32.5006 30.8341 28.5806H8.76475Z" fill="#ED1B1B"/>
<path d="M61.8399 30.1412H60.4289V33.1388H59.6436V30.1412H58.2408V29.5812H61.8399V30.1412Z" fill="black"/>
<path d="M66.3879 30.8494C66.3879 31.6318 65.6927 32.1135 64.5761 32.1135H63.615V33.1388H62.8256V29.5812H64.5761C65.6927 29.5812 66.3879 30.0588 66.3879 30.8453V30.8494ZM65.5904 30.8494C65.5904 30.4006 65.2305 30.1412 64.5393 30.1412H63.615V31.5535H64.5393C65.2305 31.5535 65.5904 31.2941 65.5904 30.8453V30.8494Z" fill="black"/>
<path d="M70.0484 32.3194H67.9217L67.5004 33.143H66.6865L68.6006 29.5853H69.3777L71.3 33.143H70.4738L70.0484 32.3194ZM69.7867 31.8006L68.9851 30.2442L68.1875 31.8006H69.7867Z" fill="black"/>
<path d="M76.0361 29.5853V33.143H75.2468V31.6194H73.0464V33.143H72.257V29.5853H73.0464V31.0553H75.2468V29.5853H76.0361Z" fill="black"/>
<path d="M77.214 31.3641C77.214 30.3018 78.1874 29.5359 79.4921 29.5359C80.1833 29.5359 80.7805 29.7459 81.1772 30.1288L80.6659 30.5324C80.3551 30.2524 79.9706 30.1165 79.5289 30.1165C78.6455 30.1165 78.0075 30.6353 78.0075 31.3682C78.0075 32.1012 78.6455 32.62 79.5289 32.62C79.9706 32.62 80.3551 32.4841 80.6659 32.2L81.1772 32.6077C80.7805 32.9947 80.1874 33.2006 79.488 33.2006C78.1874 33.2006 77.214 32.4347 77.214 31.3724V31.3641Z" fill="black"/>
<path d="M85.987 29.5853V33.143H85.2099V30.1453H83.0054V33.143H82.2283V29.5853H85.991H85.987Z" fill="black"/>
<path d="M87.1689 31.3641C87.1689 30.31 88.1423 29.5359 89.4593 29.5359C90.7763 29.5359 91.7497 30.31 91.7497 31.3641C91.7497 32.4182 90.7763 33.1924 89.4593 33.1924C88.1423 33.1924 87.1689 32.4141 87.1689 31.3641ZM90.9562 31.3641C90.9562 30.6353 90.3182 30.1124 89.4593 30.1124C88.6004 30.1124 87.9624 30.6353 87.9624 31.3641C87.9624 32.0929 88.6004 32.6159 89.4593 32.6159C90.3182 32.6159 90.9562 32.0929 90.9562 31.3641Z" fill="black"/>
<path d="M96.494 30.8494C96.494 31.6318 95.8028 32.1135 94.6822 32.1135H93.721V33.1388H92.9317V29.5812H94.6822C95.7987 29.5812 96.494 30.0588 96.494 30.8453V30.8494ZM95.6965 30.8494C95.6965 30.4006 95.3366 30.1412 94.6454 30.1412H93.721V31.5535H94.6454C95.3366 31.5535 95.6965 31.2941 95.6965 30.8453V30.8494Z" fill="black"/>
<path d="M100.514 30.1412H99.1034V33.1388H98.3181V30.1412H96.9153V29.5812H100.514V30.1412Z" fill="black"/>
<path d="M105.279 29.5853V33.143H104.49V31.6194H102.289V33.143H101.5V29.5853H102.289V31.0553H104.49V29.5853H105.279Z" fill="black"/>
<path d="M106.453 31.3641C106.453 30.31 107.426 29.5359 108.743 29.5359C110.06 29.5359 111.034 30.31 111.034 31.3641C111.034 32.4182 110.06 33.1924 108.743 33.1924C107.426 33.1924 106.453 32.4141 106.453 31.3641ZM110.24 31.3641C110.24 30.6353 109.602 30.1124 108.743 30.1124C107.885 30.1124 107.246 30.6353 107.246 31.3641C107.246 32.0929 107.885 32.6159 108.743 32.6159C109.602 32.6159 110.24 32.0929 110.24 31.3641Z" fill="black"/>
<path d="M117.835 29.5853V33.143H117.058V30.1453H115.381L115.345 31.0347C115.291 32.4389 115.042 33.1965 114.122 33.1965C113.987 33.1965 113.856 33.1759 113.692 33.1471L113.745 32.5747C113.807 32.5912 113.86 32.5953 113.929 32.5953C114.445 32.5953 114.604 32.0683 114.645 31.0636L114.707 29.5894H117.835V29.5853Z" fill="black"/>
<path d="M119.013 31.3641C119.013 30.31 119.987 29.5359 121.304 29.5359C122.621 29.5359 123.594 30.31 123.594 31.3641C123.594 32.4182 122.621 33.1924 121.304 33.1924C119.987 33.1924 119.013 32.4141 119.013 31.3641ZM122.801 31.3641C122.801 30.6353 122.162 30.1124 121.304 30.1124C120.445 30.1124 119.807 30.6353 119.807 31.3641C119.807 32.0929 120.445 32.6159 121.304 32.6159C122.162 32.6159 122.801 32.0929 122.801 31.3641Z" fill="black"/>
<path d="M127.668 30.1412H125.557V33.1388H124.784V29.5812H127.672V30.1412H127.668Z" fill="black"/>
<path d="M128.645 29.5853H129.422V32.1094L131.708 29.5853H132.445V33.143H131.668V30.623L129.381 33.143H128.645V29.5853Z" fill="black"/>
<path d="M133.627 31.3641C133.627 30.3018 134.6 29.5359 135.905 29.5359C136.6 29.5359 137.193 29.7459 137.59 30.1288L137.079 30.5324C136.768 30.2524 136.387 30.1165 135.942 30.1165C135.058 30.1165 134.42 30.6353 134.42 31.3682C134.42 32.1012 135.058 32.62 135.942 32.62C136.383 32.62 136.768 32.4841 137.079 32.2L137.59 32.6077C137.193 32.9947 136.6 33.2006 135.901 33.2006C134.6 33.2006 133.627 32.4347 133.627 31.3724V31.3641Z" fill="black"/>
<path d="M141.667 30.1412H140.256V33.1388H139.471V30.1412H138.068V29.5812H141.667V30.1412Z" fill="black"/>
<path d="M142.661 29.5853H143.438V32.1094L145.725 29.5853H146.461V33.143H145.684V30.623L143.397 33.143H142.661V29.5853Z" fill="black"/>
<path d="M151.152 29.5853V33.143H150.367V31.8006C149.958 31.9283 149.577 31.99 149.226 31.99C148.138 31.99 147.528 31.5371 147.528 30.7177V29.5853H148.314V30.6477C148.314 31.15 148.674 31.4218 149.324 31.4218C149.676 31.4218 150.035 31.36 150.371 31.2324V29.5853H151.156H151.152Z" fill="black"/>
<path d="M155.839 32.5871V33.143H152.649V29.5853H155.753V30.1371H153.438V31.0636H155.491V31.6071H153.438V32.5871H155.839Z" fill="black"/>
<path d="M156.694 31.3641C156.694 30.3018 157.667 29.5359 158.972 29.5359C159.667 29.5359 160.26 29.7459 160.657 30.1288L160.146 30.5324C159.835 30.2524 159.455 30.1165 159.009 30.1165C158.125 30.1165 157.487 30.6353 157.487 31.3682C157.487 32.1012 158.125 32.62 159.009 32.62C159.45 32.62 159.835 32.4841 160.146 32.2L160.657 32.6077C160.26 32.9947 159.667 33.2006 158.968 33.2006C157.667 33.2006 156.694 32.4347 156.694 31.3724V31.3641Z" fill="black"/>
<path d="M163.266 31.64H162.477V33.1388H161.7V29.5812H162.477V31.0718H163.291L164.514 29.5812H165.352L163.9 31.3024L165.41 33.1388H164.518L163.271 31.64H163.266Z" fill="black"/>
<path d="M168.996 32.3194H166.87L166.448 33.143H165.634L167.549 29.5853H168.326L170.248 33.143H169.422L168.996 32.3194ZM168.735 31.8006L167.933 30.2442L167.135 31.8006H168.735Z" fill="black"/>
<path d="M174.244 29.5853V33.143H173.467V32.1506H172.33L171.54 33.143H170.706L171.618 32.0436C171.029 31.8624 170.694 31.4589 170.694 30.8906C170.694 30.0671 171.393 29.5853 172.473 29.5853H174.244ZM171.495 30.8824C171.495 31.3518 171.831 31.6153 172.469 31.6153H173.467V30.1453H172.501C171.855 30.1453 171.499 30.3924 171.499 30.8824H171.495Z" fill="black"/>
<path d="M179.299 31.64H178.51V33.1388H177.733V29.5812H178.51V31.0718H179.324L180.546 29.5812H181.385L179.933 31.3024L181.442 33.1388H180.551L179.303 31.64H179.299Z" fill="black"/>
<path d="M181.949 31.3641C181.949 30.31 182.923 29.5359 184.24 29.5359C185.557 29.5359 186.53 30.31 186.53 31.3641C186.53 32.4182 185.557 33.1924 184.24 33.1924C182.923 33.1924 181.949 32.4141 181.949 31.3641ZM185.737 31.3641C185.737 30.6353 185.099 30.1124 184.24 30.1124C183.381 30.1124 182.743 30.6353 182.743 31.3641C182.743 32.0929 183.381 32.6159 184.24 32.6159C185.099 32.6159 185.737 32.0929 185.737 31.3641Z" fill="black"/>
<path d="M191.622 33.1429L191.614 30.7835L190.215 32.7353H189.863L188.465 30.8124V33.1388H187.716V29.5812H188.366L190.051 31.9324L191.716 29.5812H192.362L192.375 33.1388H191.622V33.1429Z" fill="black"/>
<path d="M197.638 29.5853V33.143H196.861V30.1453H194.657V33.143H193.88V29.5853H197.642H197.638Z" fill="black"/>
<path d="M201.961 32.3194H199.835L199.413 33.143H198.599L200.514 29.5853H201.291L203.213 33.143H202.387L201.961 32.3194ZM201.7 31.8006L200.898 30.2442L200.1 31.8006H201.7Z" fill="black"/>
<path d="M207.953 29.5853V33.143H207.164V31.6194H204.963V33.143H204.174V29.5853H204.963V31.0553H207.164V29.5853H207.953Z" fill="black"/>
<path d="M209.454 29.5853H210.231V32.1094L212.518 29.5853H213.254V33.143H212.477V30.623L210.19 33.143H209.454V29.5853Z" fill="black"/>
<path d="M218.002 29.5853V33.143H217.225V32.1506H216.088L215.299 33.143H214.464L215.376 32.0436C214.787 31.8624 214.452 31.4589 214.452 30.8906C214.452 30.0671 215.151 29.5853 216.235 29.5853H218.002ZM215.254 30.8824C215.254 31.3518 215.589 31.6153 216.227 31.6153H217.225V30.1453H216.26C215.614 30.1453 215.258 30.3924 215.258 30.8824H215.254Z" fill="black"/>
</svg>
