<svg xmlns="http://www.w3.org/2000/svg" width="81" height="36" viewBox="0 0 81 36" fill="none"><path d="M80.41 20.875C80.41 28.875 66.785 35.375 49.91 35.375C46.785 35.375 43.785 35.125 41.035 34.75C42.035 34.75 42.91 34.875 43.91 34.875C60.785 34.875 74.41 27.75 74.41 19C74.41 15.25 72.035 11.875 68.035 9.25C75.535 11.875 80.41 16.125 80.41 20.875ZM6.28497 16.5C6.28497 20.25 8.78497 23.625 12.785 26.25C5.28497 23.625 0.409972 19.375 0.409972 14.625C0.284972 6.625 13.91 0.125 30.785 0C33.91 0 36.785 0.25 39.66 0.625C38.66 0.625 37.66 0.625 36.785 0.625C19.91 0.625 6.28497 7.75 6.28497 16.5ZM13.785 21.5L14.91 20.125C14.91 20.125 16.035 21.375 17.535 21.375C18.285 21.375 19.035 21 19.035 20.125C19.035 18.375 14.035 18.5 14.035 15.125C14.035 13.5 15.535 12.125 17.66 12.125C18.91 12.125 20.785 12.75 20.785 14.25V15.25H19.035V14.75C19.035 14.25 18.285 14 17.535 14C16.66 14 16.035 14.375 16.035 15.125C16.035 16.875 21.035 16.5 21.035 20C21.035 21.75 19.785 23.125 17.535 23.125C15.16 23.125 13.785 21.5 13.785 21.5ZM28.91 12.375H30.91V19.25C30.91 21.625 29.285 23.25 26.785 23.25C24.16 23.25 22.535 21.625 22.535 19.25V12.375H24.535V19.125C24.535 20.5 25.41 21.375 26.66 21.375C28.035 21.375 28.91 20.5 28.91 19.125V12.375ZM33.285 23V14H32.285V12.375H37.16C39.16 12.375 40.535 13.75 40.535 15.75C40.535 17.875 39.16 19.375 37.16 19.375H35.16V23H33.285ZM35.16 17.625H36.785C37.91 17.625 38.535 16.875 38.535 15.75C38.535 14.75 37.91 14 36.785 14H35.16V17.625ZM42.285 23V14H41.41V12.375H46.285C48.285 12.375 49.66 13.75 49.66 15.75C49.66 17.875 48.285 19.375 46.285 19.375H44.285V23H42.285ZM44.285 17.625H45.91C47.035 17.625 47.66 16.875 47.66 15.75C47.66 14.75 47.035 14 45.91 14H44.285V17.625ZM51.41 22V14.375C51.41 14.125 51.285 14 51.16 14H50.535V12.375H52.41C53.16 12.375 53.41 12.625 53.41 13.375V21C53.41 21.25 53.535 21.375 53.785 21.375H56.035C56.285 21.375 56.41 21.25 56.41 21V20.375H58.16V22C58.16 22.75 57.91 23 57.16 23H52.41C51.785 23 51.41 22.75 51.41 22ZM59.41 22V14H58.41V12.375H64.785C65.535 12.375 65.91 12.625 65.91 13.375V15H64.035V14.375C64.035 14.125 63.91 14 63.785 14H61.41V16.75H64.785V18.5H61.41V21C61.41 21.25 61.41 21.375 61.66 21.375H64.16C64.285 21.375 64.41 21.25 64.41 21V20.375H66.285V22C66.285 22.75 65.91 23 65.285 23H60.41C59.66 23 59.41 22.75 59.41 22ZM66.785 12.5H66.41V12.375H67.285V12.5H66.91V13.25H66.785V12.5ZM67.41 12.375H67.785L68.035 13L68.285 12.375H68.535V13.25H68.41V12.5L68.035 13.25H67.91L67.66 12.5V13.25H67.41V12.375Z" fill="#002C5F"></path></svg>