<svg xmlns="http://www.w3.org/2000/svg" width="81" height="20" viewBox="0 0 81 20" fill="none"><path d="M13.92 20C9.67002 20 8.17002 16.25 8.17002 16.25L1.17002 2.375C1.17002 2.375 -0.0799842 0 2.54502 0H6.54502C7.92002 0 8.29502 1.125 8.92002 2.375L13.545 11.625C13.545 11.625 14.17 13.25 16.17 13.25C18.17 13.25 18.795 11.625 18.795 11.625L23.42 2.375C24.045 1.125 24.42 0 25.795 0H29.795C32.42 0 31.17 2.375 31.17 2.375L24.17 16.25C24.17 16.25 22.67 20 18.42 20H13.92ZM63.295 20C59.045 20 57.545 16.25 57.545 16.25L50.545 2.375C50.545 2.375 49.295 0 51.92 0H55.92C57.295 0 57.67 1.125 58.295 2.375L62.92 11.625C62.92 11.625 63.545 13.25 65.545 13.25C67.545 13.25 68.17 11.625 68.17 11.625L72.795 2.375C73.42 1.125 73.795 0 75.17 0H79.295C81.795 0 80.545 2.375 80.545 2.375L73.545 16.25C73.545 16.25 72.045 20 67.795 20H63.295ZM43.045 0C47.295 0 48.92 3.875 48.92 3.875L55.795 17.75C55.795 17.75 57.17 20 54.545 20H50.42C49.17 20 48.795 19 48.045 17.75L43.545 8.5C43.545 8.5 42.92 6.875 40.92 6.875C38.92 6.875 38.295 8.5 38.295 8.5L33.67 17.75C32.92 19 32.545 20 31.295 20H27.17C24.545 20 25.92 17.75 25.92 17.75L32.92 3.875C32.92 3.875 34.42 0 38.67 0H43.045Z" fill="#002C5F"></path></svg>