<svg xmlns="http://www.w3.org/2000/svg" width="81" height="27" viewBox="0 0 81 27" fill="none"><path d="M18.44 25V23C19.94 23.875 21.565 24.625 23.19 25.125L18.44 25ZM25.69 24.375C29.315 25.75 32.565 26.125 35.065 26C31.94 26.875 27.815 26.75 23.19 25.125L25.69 25V24.375ZM76.815 10C74.815 10 73.19 8.37503 73.19 6.37503C73.19 4.37503 74.815 3.37503 76.815 3.37503C78.815 3.37503 80.44 4.37503 80.44 6.37503C80.44 8.37503 78.815 10 76.815 10ZM73.19 25V11.25H80.44V25H73.19ZM63.94 25V4.00003L71.19 0.625026V25H63.94ZM60.065 10.125C62.315 12.375 62.19 14.375 62.19 16.75C62.19 19 62.315 21 60.065 23.25C57.815 25.5 53.815 25.375 53.815 25.375C53.815 25.375 49.69 25.5 47.44 23.25C45.19 21 45.315 19 45.315 16.75C45.315 14.375 45.19 12.375 47.44 10.125C49.69 7.87503 53.815 8.00003 53.815 8.00003C53.815 8.00003 57.815 7.87503 60.065 10.125ZM55.065 19.125V14.125C55.065 13 54.19 12.75 53.69 12.75C53.315 12.75 52.44 13 52.44 14.125V19.125C52.44 19.625 52.69 20.625 53.69 20.625C54.815 20.625 55.065 19.625 55.065 19.125ZM41.815 10.125C44.065 12.375 43.94 14.375 43.94 16.625C43.94 19 44.065 21 41.815 23.25C39.565 25.5 35.565 25.375 35.565 25.375C35.565 25.375 31.44 25.5 29.19 23.25C26.94 21 27.065 19 27.065 16.625C27.065 14.75 26.94 13 28.315 11.25C26.315 9.75003 21.065 6.50003 15.815 3.87503V10.75C16.815 9.00003 18.565 8.00003 20.565 8.00003C23.94 8.00003 25.69 10.25 25.69 12.625V24.375C23.065 23.5 20.69 22.25 18.44 20.625V14.625C18.44 13.625 18.315 12.75 17.19 12.75C15.94 12.75 15.815 14.125 15.815 15V18.75L15.19 18.25C12.315 15.875 10.19 13.875 8.56499 12V15.875C9.93999 17.125 11.44 18.375 13.315 19.75C14.19 20.375 14.94 21 15.815 21.5V25H8.56499V15.875C-2.31001 6.12503 0.814995 2.00003 0.814995 2.00003C1.81499 -0.249974 6.18999 -0.749974 12.94 2.00003L15.815 0.625026V3.25003C19.44 5.12503 23.815 7.12503 28.565 10.875C28.69 10.625 28.94 10.375 29.19 10.125C31.44 7.87503 35.565 8.00003 35.565 8.00003C35.565 8.00003 39.565 7.87503 41.815 10.125ZM8.56499 4.00003L12.19 2.37503C8.81499 1.12503 5.81499 0.625026 4.18999 2.12503C3.68999 2.50003 2.43999 5.12503 8.56499 12V4.00003ZM36.815 19.125V14.125C36.815 13 35.94 12.75 35.565 12.75C35.065 12.75 34.19 13 34.19 14.125V19.125C34.19 19.625 34.44 20.625 35.565 20.625C36.565 20.625 36.815 19.625 36.815 19.125Z" fill="#002C5F"></path></svg>