<svg xmlns="http://www.w3.org/2000/svg" width="66" height="40" viewBox="0 0 66 40" fill="none"><path d="M54.47 18.25C54.22 18.5 53.97 18.875 53.97 18.25C54.345 16.75 55.72 14.5 54.47 14.25C52.345 13.875 43.47 14.875 43.47 14.25C43.47 14 46.845 13.875 48.22 13.125C49.47 12 49.595 12.125 49.595 12.125H52.97C56.345 12.125 57.72 13.125 54.47 18.25ZM40.47 21.125C32.595 23.75 24.845 27.875 0.344971 40L6.84497 9.375C29.97 9.375 48.72 8.625 49.095 12.125H24.47L28.345 23.875C32.72 21.75 43.47 17.375 49.97 17.125C52.595 17 53.72 17.5 53.22 17.875C52.595 18.125 48.47 18.375 40.47 21.125ZM8.71997 0H65.595L57.095 40H4.21997C4.21997 40 54.47 20.375 54.97 20C54.97 20 59.47 14 56.845 11.5C55.97 10.75 54.845 10.75 50.22 10.75C49.97 8.25 40.47 6.75 8.71997 0Z" fill="#002C5F"></path></svg>