<?xml version="1.0" encoding="UTF-8"?> <svg xmlns="http://www.w3.org/2000/svg" viewBox="0 0 60.94 108.44"> <defs> <style>.d{fill:#fff;}</style> </defs> <g id="a"></g> <g id="b"> <g id="c"> <path class="d" d="M60.33,95.29c-.66-1.19-1.4-2.34-2.13-3.49-1.26-1.99-2.56-3.96-3.82-5.96-.95-1.51-1.84-3.05-2.8-4.56-.69-1.09-1.42-2.16-2.19-3.2-.98-1.33-2.25-2.17-3.99-1.9-.64,.1-1.3,.21-1.89,.46-2.87,1.22-5.75,2.44-8.73,3.36-1.8,.55-3.48,.38-4.87-1-.48-.48-.85-1.07-1.25-1.62-.72-.98-1.47-1.94-2.13-2.96-1.81-2.78-3.37-5.7-4.63-8.78-1.04-2.54-2.02-5.1-2.66-7.78-.4-1.67-.84-3.33-1.13-5.01-.38-2.17-.73-4.36-.91-6.56-.2-2.46-.21-4.94-.24-7.41,0-.79,.1-1.62,.36-2.36,.4-1.16,1.5-1.59,2.55-1.94,1.66-.55,3.35-1.05,5.04-1.5,1.41-.38,2.75-.84,4.04-1.54,1.46-.79,2.12-1.99,2.29-3.56,.03-.26,.04-.53,.08-.79,.18-1.01,.38-2.01,.56-3.02,.16-.86,.32-1.72,.46-2.58,.2-1.24,.36-2.48,.57-3.71,.19-1.12,.44-2.24,.62-3.36,.31-1.87,.53-3.76,.9-5.62,.19-.97,.15-1.89-.05-2.83-.1-.5-.32-.93-.72-1.26-.88-.72-1.71-1.51-2.65-2.15C29.07,1.34,26.98,.4,24.62,.08c-1.18-.16-2.3-.07-3.39,.22-2.17,.57-4.34,1.18-6.33,2.26-1.71,.92-3.35,1.94-4.79,3.26-.56,.51-1.11,1.04-1.66,1.56-.19,.18-.42,.34-.57,.55-.97,1.32-1.93,2.65-2.9,3.98-1.04,1.7-2.02,3.43-2.63,5.33-.49,1.51-.89,3.06-1.27,4.61-.26,1.06-.5,2.14-.62,3.23-.19,1.66-.33,3.32-.38,4.99-.06,1.94-.11,3.88,0,5.81,.22,3.57,.55,7.14,.85,10.7,.27,3.2,.83,6.35,1.43,9.49,.68,3.53,1.56,7.01,2.68,10.42,.71,2.17,1.39,4.35,2.23,6.48,.71,1.8,1.61,3.53,2.43,5.29,1.14,2.45,2.44,4.82,3.96,7.06,1.56,2.29,3.23,4.51,4.87,6.74,.52,.7,1.11,1.35,1.65,2.03,.84,1.07,1.61,2.21,2.51,3.23,1.07,1.22,2.25,2.36,3.38,3.53,.24,.24,.47,.49,.73,.72,.83,.73,1.62,1.5,2.5,2.15,.99,.72,2.08,1.3,3.09,1.98,1.62,1.09,3.5,1.5,5.31,2,1.78,.48,3.65,.67,5.52,.73,2.19,.07,4.33-.13,6.47-.58,2.7-.57,4.74-2.2,6.65-4.01,1.15-1.09,2.23-2.29,3.22-3.53,1.44-1.81,1.82-3.08,.76-5.02Z"></path> </g> </g> </svg> 