<svg xmlns="http://www.w3.org/2000/svg" fill="none" height="317" viewBox="0 0 569 317" width="569"><path clip-rule="evenodd" d="m163.097 316.826s11.014-15.572 12.016-24.181c1.001-8.611-5.38-13.19-12.016-13.19s-13.017 4.579-12.016 13.19c1.002 8.609 12.016 24.181 12.016 24.181zm0-18.686c3.318 0 6.008-2.788 6.008-6.228s-2.69-6.228-6.008-6.228-6.008 2.788-6.008 6.228 2.69 6.228 6.008 6.228zm-150.4935-148.978s11.0143-15.572 12.0163-24.181c1.0009-8.611-5.3804-13.19-12.0163-13.19-6.63583 0-13.017157 4.579-12.016224 13.19 1.001944 8.609 12.016224 24.181 12.016224 24.181zm0-18.686c3.318 0 6.0076-2.788 6.0076-6.228s-2.6896-6.228-6.0076-6.228c-3.3179 0-6.00759 2.788-6.00759 6.228s2.68969 6.228 6.00759 6.228zm157.5635-27.775s11.015-15.5718 12.017-24.1812c1-8.6105-5.381-13.1899-12.017-13.1899s-13.017 4.5794-12.016 13.1899c1.002 8.6094 12.016 24.1812 12.016 24.1812zm0-18.6857c3.318 0 6.008-2.7887 6.008-6.2288 0-3.4391-2.69-6.2278-6.008-6.2278s-6.007 2.7887-6.007 6.2278c0 3.4401 2.689 6.2288 6.007 6.2288zm183.825-45.9561s11.014-15.5715 12.016-24.1809c1.001-8.6105-5.381-13.189946-12.016-13.189946-6.636 0-13.018 4.579446-12.017 13.189946 1.002 8.6094 12.017 24.1809 12.017 24.1809zm0-18.6854c3.318 0 6.007-2.7877 6.007-6.2288 0-3.43915-2.689-6.22783-6.007-6.22783s-6.008 2.78767-6.008 6.22783c0 3.4401 2.69 6.2288 6.008 6.2288zm-76.762 164.1292s11.014-15.572 12.016-24.181c1.001-8.611-5.38-13.19-12.016-13.19s-13.017 4.579-12.016 13.19c1.001 8.609 12.016 24.181 12.016 24.181zm0-18.686c3.318 0 6.007-2.788 6.007-6.229 0-3.439-2.689-6.227-6.007-6.227s-6.008 2.788-6.008 6.227c0 3.441 2.69 6.229 6.008 6.229zm88.882 140.899s11.014-15.572 12.016-24.181c1.001-8.611-5.38-13.19-12.016-13.19s-13.017 4.579-12.016 13.19c1.002 8.609 12.016 24.181 12.016 24.181zm0-18.686c3.318 0 6.007-2.789 6.007-6.229 0-3.439-2.689-6.228-6.007-6.228s-6.008 2.789-6.008 6.228c0 3.44 2.69 6.229 6.008 6.229zm189.884-184.329s11.015-15.5718 12.017-24.1812c1-8.6105-5.381-13.1899-12.017-13.1899s-13.017 4.5794-12.016 13.1899c1.002 8.6094 12.016 24.1812 12.016 24.1812zm0-18.6857c3.318 0 6.008-2.7887 6.008-6.2288 0-3.4391-2.69-6.2278-6.008-6.2278s-6.007 2.7887-6.007 6.2278c0 3.4401 2.689 6.2288 6.007 6.2288z" fill="#1976d2" fill-rule="evenodd"></path></svg>