<svg xmlns="http://www.w3.org/2000/svg" fill="none" height="451" viewBox="0 0 669 451" width="669"><path d="m2.02222 217.902c-.60815 0-1.101147.493-1.101147 1.101 0 .609.492997 1.102 1.101147 1.102zm171.37078 2.203c.608 0 1.101-.493 1.101-1.102 0-.608-.493-1.101-1.101-1.101zm-149.2811 90.608-1.0234-.406-.5985 1.508h1.6219zm97.7401 0h1.101v-1.101h-1.101zm51.54-137.474v-1.101h-1.101v1.101zm103.093 0 1.094.129.145-1.23h-1.239zm-4.292 36.341.492.985.532-.266.069-.59zm-20.201 10.1-.492-.985-.609.305v.68zm0 99.993h-1.101v.305l.157.261zm21.211 35.35h1.101v-.305l-.157-.261zm43.431 34.2c.608 0 1.101-.493 1.101-1.101s-.493-1.101-1.101-1.101zm-128.768-216.509c0 .608.493 1.101 1.101 1.101s1.101-.493 1.101-1.101zm2.202-92.9221c0-.6081-.493-1.1011-1.101-1.1011s-1.101.493-1.101 1.1011zm185.862 135.6761c.463-.394.518-1.089.123-1.552-.394-.463-1.089-.518-1.552-.124zm-.714 56.228 1.017.423.084-.203v-.22zm-21.21 51.007-1.017-.423-.085.203v.22zm278.767-214.711-.002 1.101 1.103.002v-1.103zm-148.474 55.127-.687-.861-.415.33v.531zm64.641-51.511.686.861.415-.331v-.53zm-194.429 259.697c-.608 0-1.101.493-1.101 1.101s.493 1.101 1.101 1.101zm129.656 2.202c.609 0 1.102-.493 1.102-1.101s-.493-1.101-1.102-1.101zm0-135.859c-.608 0-1.101.493-1.101 1.101s.493 1.101 1.101 1.101zm182.946 2.202c.608 0 1.101-.493 1.101-1.101s-.493-1.101-1.101-1.101zm-91.245-132.303c0-.608-.493-1.101-1.101-1.101-.609 0-1.102.493-1.102 1.101zm-2.203 130.818c0 .609.493 1.102 1.102 1.102.608 0 1.101-.493 1.101-1.102zm-571.64278-18.26h171.37078v-2.203h-171.37078zm57.21508-.841-36.1488 91.043 2.0469.813 36.1487-91.044zm-35.1254 92.551h97.7401v-2.203h-97.7401zm96.6391-1.102v46.866h2.202v-46.866zm16.655 120.312 36.816-42.179-1.659-1.448-36.816 42.178zm37.087-42.903v-214.883h-2.202v214.883zm-1.101-213.782h103.093v-2.202h-103.093zm102-1.23-4.293 36.341 2.187.258 4.293-36.341zm-3.692 35.485-20.2 10.1.985 1.97 20.2-10.1zm-20.809 11.085v99.993h2.202v-99.993zm.157 100.559 21.211 35.351 1.888-1.133-21.21-35.351zm21.054 34.784v32.321h2.202v-32.321zm-98.71 34.2h143.242v-2.202h-143.242zm16.676-216.509v-92.9221h-2.202v92.9221zm62.639 147.797 123.223-105.043-1.429-1.676-123.223 105.043zm121.408-320.511v271.696h2.202v-271.696zm.084 271.274-21.21 51.006 2.033.845 21.211-51.006zm-21.295 51.429v127.768h2.203v-127.768zm21.846-213.984 258.021.374.003-2.202-258.02-.374zm259.124-.727v-53.9556h-2.202v53.9556zm-148.474 295.512v-240.385h-2.203v240.385zm-.415-239.524 64.641-51.511-1.372-1.723-64.642 51.512zm65.056-52.372v-50.5015h-2.202v50.5015zm-195.53 261.899h129.656v-2.202h-129.656zm129.656-133.657h182.946v-2.202h-182.946zm89.498-132.303v130.818h2.203v-130.818z" fill="#676b89" fill-opacity=".5" opacity=".3"></path></svg>